<svg xmlns="http://www.w3.org/2000/svg" width="256" height="256" viewBox="0 0 100 100"><rect width="100" height="100" rx="20" fill="#f2c94c"></rect><path d="M49.05 57.47L40.23 59.63Q38.43 57.83 38.43 55.67L38.43 55.67Q38.43 54.41 39.16 53.60Q39.88 52.79 41.67 52.34L41.67 52.34L47.88 50.72Q53.82 49.19 57.02 46.18Q60.21 43.16 60.21 38.30L60.21 38.30Q60.21 33.98 57.11 30.88Q54.00 27.77 47.44 27.77L47.44 27.77Q43.83 27.77 40.19 28.90Q36.55 30.02 34.38 31.82L34.38 31.82Q32.31 30.29 32.31 27.95L32.31 27.95Q32.31 26.60 33.44 25.43Q34.56 24.26 36.63 23.36Q38.70 22.46 41.49 21.92Q44.28 21.38 47.70 21.38L47.70 21.38Q52.11 21.38 55.80 22.64Q59.49 23.90 62.15 26.11Q64.81 28.31 66.25 31.42Q67.69 34.52 67.69 38.21L67.69 38.21Q67.69 45.86 63.05 50.50Q58.41 55.13 49.05 57.47L49.05 57.47ZM39.24 73.58L39.24 73.58Q39.24 71.42 40.59 69.94Q41.94 68.45 44.28 68.45L44.28 68.45Q46.63 68.45 48.02 69.94Q49.41 71.42 49.41 73.58L49.41 73.58Q49.41 75.74 48.02 77.18Q46.63 78.62 44.28 78.62L44.28 78.62Q41.94 78.62 40.59 77.18Q39.24 75.74 39.24 73.58Z" fill="#ffffff"></path></svg>