<svg xmlns="http://www.w3.org/2000/svg" width="256" height="256" viewBox="0 0 100 100"><path fill="#000000" d="M53.33 65.66L45.59 65.66L45.59 63.32Q45.59 58.64 47.25 54.99Q48.92 51.35 51.30 49.10Q53.69 46.85 56.12 44.78Q58.55 42.71 60.21 40.05Q61.88 37.40 61.88 34.16L61.88 34.16Q61.88 30.02 58.87 27.27Q55.85 24.53 50.54 24.53L50.54 24.53Q44.51 24.53 41.14 27.77Q37.76 31.01 37.76 36.32L37.76 36.32L30.38 36.32Q30.38 27.86 35.87 22.59Q41.36 17.33 50.54 17.33L50.54 17.33Q59.45 17.33 64.53 22.14Q69.62 26.96 69.62 34.34L69.62 34.34Q69.62 37.94 68.41 40.91Q67.19 43.88 65.39 45.68Q63.59 47.48 61.48 49.41Q59.36 51.35 57.56 53.06Q55.76 54.77 54.55 57.42Q53.33 60.08 53.33 63.32L53.33 63.32L53.33 65.66ZM53.73 80.83Q51.98 82.67 49.37 82.67Q46.76 82.67 44.96 80.83Q43.16 78.98 43.16 76.55Q43.16 74.12 44.96 72.27Q46.76 70.43 49.37 70.43Q51.98 70.43 53.73 72.23Q55.49 74.03 55.49 76.55L55.49 76.55Q55.49 78.98 53.73 80.83Z"></path></svg>